<svg xmlns="http://www.w3.org/2000/svg" viewBox="0 0 268.125 330.625"><path d="m70.206 261.97c-35.12-35.34-64.607-65.15-65.527-66.24l-1.6712-1.99 22.017-21.89c12.109-12.04 22.19-21.75 22.402-21.57s11.073 11 24.135 24.03c13.063 13.038 24.368 23.884 25.124 24.102.93934.27133 1.78-.009 2.6562-.88501 1.2816-1.2816 1.282-1.313 1.282-97.793 0-53.081.17071-96.956.37936-97.5.34-.8754 3.84-.98 33.06-.98 29.222 0 32.719.10457 33.058.98862.20865.54374.37936 44.419.37936 97.5 0 96.48.00042 96.512 1.282 97.793.87625.87624 1.7169 1.1563 2.6562.88501.75586-.21832 12.062-11.064 25.124-24.102s23.923-23.852 24.136-24.031c.21203-.17912 10.293 9.5259 22.402 21.567l22.017 21.892-1.6754 1.9911c-.92146 1.0951-30.409 30.904-65.528 66.243l-63.853 64.252-63.855-64.257"/></svg>
