<svg id="svg3384" xmlns:rdf="http://www.w3.org/1999/02/22-rdf-syntax-ns#" xmlns="http://www.w3.org/2000/svg" height="210mm" width="297mm" version="1.1" xmlns:cc="http://creativecommons.org/ns#" xmlns:dc="http://purl.org/dc/elements/1.1/" viewBox="0 0 1052.3622 744.09448">
 <path id="path3386" d="m68.363 69.494c35.34-35.12 65.15-64.607 66.24-65.527l1.99-1.6712 21.89 22.017c12.04 12.109 21.75 22.19 21.57 22.402s-11 11.073-24.03 24.135c-13.038 13.063-23.884 24.368-24.102 25.124-.27133.93934.009 1.78.885 2.6562 1.2816 1.2816 1.313 1.282 97.793 1.282 53.081 0 96.956.17071 97.5.37936.8754.34.98 3.84.98 33.06 0 29.222-.10457 32.719-.98862 33.058-.54374.20865-44.419.37936-97.5.37936-96.48 0-96.512.00042-97.793 1.282-.87623.87625-1.1563 1.7169-.885 2.6562.21832.75586 11.064 12.062 24.102 25.124s23.852 23.923 24.031 24.136c.17913.21203-9.5259 10.293-21.567 22.402l-21.892 22.017-1.9911-1.6754c-1.0951-.92146-30.904-30.409-66.243-65.528l-64.256-63.85 64.257-63.856"/>
</svg>
